PathFileType	4	(X/Y/Z)	/Users/niels/Desktop/University/Third Semester/Perception and Action/Exam/Gymnastics Motion Tracking/Code for Gym Tracking/Analyzed Data/Webcam_Backflip/id1_4_baseline_Sports2D/id1_4_baseline_Sports2D_px_person00.trc
DataRate	CameraRate	NumFrames	NumMarkers	Units	OrigDataRate	OrigDataStartFrame	OrigNumFrames
29.87551867219917	29.87551867219917	8	22	m	29.87551867219917	0	241
Frame#	Time	Hip			RHip			RKnee			RAnkle			RBigToe			RSmallToe			RHeel			LHip			LKnee			LAnkle			LBigToe			LSmallToe			LHeel			Neck			Head			Nose			RShoulder			RElbow			RWrist			LShoulder			LElbow			LWrist		
		X1	Y1	Z1	X2	Y2	Z2	X3	Y3	Z3	X4	Y4	Z4	X5	Y5	Z5	X6	Y6	Z6	X7	Y7	Z7	X8	Y8	Z8	X9	Y9	Z9	X10	Y10	Z10	X11	Y11	Z11	X12	Y12	Z12	X13	Y13	Z13	X14	Y14	Z14	X15	Y15	Z15	X16	Y16	Z16	X17	Y17	Z17	X18	Y18	Z18	X19	Y19	Z19	X20	Y20	Z20	X21	Y21	Z21	X22	Y22	Z22
0	0.0	0.9312994061944492	-0.5995174747131642	0.0	0.9273096173208434	-0.5995140311078718	0.0	0.9339606728941646	-0.7006142744440651	0.0	0.9206558163746076	-0.8110262757360588	0.0	0.9658753232970972	-0.8323149117178009	0.0	0.9592242513757553	-0.8363113816852297	0.0	0.9086866296556636	-0.8309831293268165	0.0	0.9406107676752075	-0.5968494332673472	0.0	0.9366181399942861	-0.6992834291487134	0.0	0.9246477631186492	-0.808368071310052	0.0	0.9672077181061336	-0.82698753512749	0.0	0.9632178319093346	-0.8256609545392054	0.0	0.9113469690200112	-0.8256689855927182	0.0	0.9485896791080103	-0.43856178122109185	0.0	0.9805235915517795	-0.3693716993701779	0.0	0.984513898576113	-0.41194830196866233	0.0	0.9326309537636451	-0.4585084050415703	0.0	0.9592419453390263	-0.5290132087880834	0.0	1.0284148382513103	-0.5489568187298977	0.0	0.9392727169165321	-0.45850777800453774	0.0	0.9552427682684044	-0.5250277813344456	0.0	1.023091536417731	-0.5449734279400763	0.0
1	0.03347222222222222	0.9304587070387431	-0.5987099483617883	0.0	0.9272737467749755	-0.5984890988212025	0.0	0.9333072385218979	-0.7004075754625484	0.0	0.920715448548745	-0.8112778082708173	0.0	0.9667703164251288	-0.8305563248449208	0.0	0.960407318664958	-0.8342350625707513	0.0	0.909323477008098	-0.8298172201876298	0.0	0.9394406477686745	-0.59643693104409	0.0	0.9355024496773381	-0.6996156515533978	0.0	0.9238119156566943	-0.8078998679364557	0.0	0.966991338433546	-0.8268741851971619	0.0	0.9624605832728204	-0.8247187716912254	0.0	0.9102202399695737	-0.8240091068835568	0.0	0.9475140441146004	-0.4382166576962326	0.0	0.9789641717364646	-0.3705201770276234	0.0	0.9852369100525772	-0.41312783664276964	0.0	0.9337589884651544	-0.45790750807460606	0.0	0.9674064554303385	-0.5245139305141949	0.0	1.0356284230369799	-0.5382509132645963	0.0	0.9379113699376314	-0.4578954041448166	0.0	0.9627762577746127	-0.5214486640694328	0.0	1.031101708537799	-0.5354352648560976	0.0
2	0.06694444444444445	0.9296997961463528	-0.5979764087559759	0.0	0.9272641910067677	-0.5975025073419585	0.0	0.9326994527765309	-0.7000481441978613	0.0	0.9206976154976899	-0.8113437731296839	0.0	0.9672895777634231	-0.8290884870822969	0.0	0.9610912460438203	-0.8324783506721584	0.0	0.9097869879749396	-0.8287812250476345	0.0	0.9383272047948626	-0.5959370844322036	0.0	0.9345130658220099	-0.6996886342786489	0.0	0.9231436311496987	-0.8074160924920715	0.0	0.9665952244662438	-0.8267179092653653	0.0	0.9616322116603897	-0.8239407683172081	0.0	0.9093174417380346	-0.8225421973226585	0.0	0.9467072954690445	-0.43783497354542655	0.0	0.9775319882431945	-0.37118633055141886	0.0	0.9858533085232897	-0.413903461407282	0.0	0.9348562367350883	-0.45731173651670703	0.0	0.9752356582061278	-0.5201459960220813	0.0	1.0424059635881604	-0.5276898960682566	0.0	0.936896099887479	-0.4572481514510856	0.0	0.9699222386915204	-0.5178182235195702	0.0	1.038266916746123	-0.5259709307571503	0.0
3	0.10041666666666667	0.9290941133177818	-0.5973290326378166	0.0	0.9272927911140846	-0.5965570501269412	0.0	0.9321721539158283	-0.6994873044298688	0.0	0.9205812897373333	-0.8111400812502936	0.0	0.9672853517307402	-0.8280244295764138	0.0	0.9610529867542693	-0.8311828427685063	0.0	0.9100240728655512	-0.8279336443217014	0.0	0.9373037322736342	-0.5952981135997135	0.0	0.9337395790832216	-0.6994073587619732	0.0	0.9227047567379487	-0.8068935442017762	0.0	0.9659573386162942	-0.8264926239131509	0.0	0.9607385093293876	-0.8233979151484773	0.0	0.90872498143625	-0.8213525663542147	0.0	0.9463010736127048	-0.43739365488706194	0.0	0.9762571653484381	-0.3711492889588389	0.0	0.9863039143589352	-0.4140782472231106	0.0	0.9359299989368867	-0.45672077299889224	0.0	0.9824427508646413	-0.5159604570075359	0.0	1.0484674901855666	-0.5174221004451326	0.0	0.9364142607585622	-0.4565303662804137	0.0	0.9764459889879342	-0.5140436428310484	0.0	1.0441754815850561	-0.5166421548707002	0.0
4	0.1338888888888889	0.9286743718381136	-0.5967164952244544	0.0	0.9273548410972797	-0.5956152046403183	0.0	0.9317560359472568	-0.6987997955228825	0.0	0.9203956052374505	-0.8107145489706022	0.0	0.966872433903946	-0.8272946340107578	0.0	0.9604036449714748	-0.8303152261901142	0.0	0.9100969746004486	-0.827273251176396	0.0	0.9363807304894162	-0.5944974225470335	0.0	0.9332097074650613	-0.6988624421619477	0.0	0.9224485042064544	-0.8063242249325351	0.0	0.9651458530428355	-0.8261976662923158	0.0	0.9598685134934253	-0.823055445144649	0.0	0.9083874597482723	-0.8204042100540804	0.0	0.9462745241332519	-0.4369030608450242	0.0	0.9750922151493893	-0.37049238283943026	0.0	0.986576276304448	-0.41370379738138324	0.0	0.9370095382366274	-0.45614051387334986	0.0	0.9888117906269567	-0.5119189801957895	0.0	1.0537183159398738	-0.5076098270324823	0.0	0.9364427931035989	-0.45573046652527577	0.0	0.9822528630914088	-0.510041730119396	0.0	1.0488822319710427	-0.5075271746267751	0.0
5	0.16736111111111113	0.9284198188447224	-0.5960798556994444	0.0	0.9274399918620959	-0.5946290494187366	0.0	0.9314844222094566	-0.6981178124827474	0.0	0.9201848451158584	-0.8102058305830433	0.0	0.9663057892521639	-0.8267784238780378	0.0	0.9594683548705656	-0.8297794103877155	0.0	0.9100989021356672	-0.8267765200825261	0.0	0.9355558157335633	-0.593532575883789	0.0	0.9328975276369157	-0.698228135306139	0.0	0.922294248496664	-0.8057518576313344	0.0	0.9642864430740001	-0.8258809396958691	0.0	0.959144520017367	-0.822843882957848	0.0	0.9082021819784382	-0.8196229017318758	0.0	0.9465279533194709	-0.43640269140398746	0.0	0.9739828334542987	-0.36947108307847293	0.0	0.986682026776129	-0.41298602266403445	0.0	0.9381044640903252	-0.4555790114951468	0.0	0.9942596883262631	-0.5079183413396255	0.0	1.0582043684807794	-0.49834782483852424	0.0	0.9368477724743195	-0.4548807919818933	0.0	0.9873848448440695	-0.5057775706679888	0.0	1.052652605844854	-0.49866687784400654	0.0
6	0.20083333333333334	0.92827978775598	-0.5954066938169789	0.0	0.9275331395838741	-0.5935988388491198	0.0	0.9313752114759508	-0.697558230610357	0.0	0.9199896824902585	-0.8097764172682355	0.0	0.9658435918653916	-0.82640819285362	0.0	0.9586263685359088	-0.8294819202654028	0.0	0.9100887322765758	-0.8264166533511115	0.0	0.9348274797967577	-0.5924497973300654	0.0	0.9327576724676414	-0.6976606905957992	0.0	0.922186067799967	-0.8052736434657485	0.0	0.9635068091249177	-0.8256364993618832	0.0	0.95867142985751	-0.8227244567459229	0.0	0.9080938460702594	-0.8189763491280084	0.0	0.9469507259568454	-0.4359392400710738	0.0	0.9729000567706192	-0.3683723186241212	0.0	0.9866474914328148	-0.41216599246730273	0.0	0.9391904295093558	-0.45502321299761567	0.0	0.9988395589023455	-0.5038665112812257	0.0	1.0620257636054464	-0.4896587961966788	0.0	0.9375253554364309	-0.45404310540755993	0.0	0.9919999268424771	-0.5012748525247868	0.0	1.0557162339376671	-0.49006004091029076	0.0
7	0.23430555555555554	0.9282160525567174	-0.5947130278203105	0.0	0.9276163175042473	-0.5925736055261766	0.0	0.931412188158705	-0.6971886455723962	0.0	0.919851504675154	-0.8095281420962308	0.0	0.965633224469649	-0.8261798474133077	0.0	0.9581421625076963	-0.8293576142994787	0.0	0.9100822545793644	-0.8261799171463166	0.0	0.9342079992881904	-0.5913335814679895	0.0	0.9327483476553239	-0.697252521349098	0.0	0.9221148449177804	-0.8049759890419742	0.0	0.9629113972850365	-0.8255335268140386	0.0	0.9584866911391916	-0.8226821421128444	0.0	0.9080474268539165	-0.8184963367510539	0.0	0.9474497070945738	-0.43554303166837477	0.0	0.9718468172008833	-0.36738664450249786	0.0	0.9865002717287173	-0.4114024996514856	0.0	0.9402457347627908	-0.4544437096503151	0.0	1.0026640810597465	-0.4997268068241263	0.0	1.065250091084945	-0.48155793728901936	0.0	0.9384129759449732	-0.45326117238334956	0.0	0.9962136934598456	-0.49661572722115005	0.0	1.0582179750992162	-0.48175540694298824	0.0
